<svg width="24" height="24" viewBox="0 0 24 24" fill="none" xmlns="http://www.w3.org/2000/svg">
<path d="M21.2847 4H2.95463C1.87819 4 1 4.87724 1 5.95463V18.9855C1 20.0592 1.87428 20.9401 2.95463 20.9401H21.2847C22.3584 20.9401 23.2393 20.0658 23.2393 18.9855V5.95463C23.2393 4.88089 22.365 4 21.2847 4ZM21.0148 5.30309L12.1611 14.1568L3.23084 5.30309H21.0148ZM2.30309 18.7157V6.21824L8.5787 12.44L2.30309 18.7157ZM3.2245 19.637L9.50407 13.3575L11.7044 15.5389C11.9591 15.7914 12.3702 15.7906 12.6238 15.5369L14.7693 13.3915L21.0148 19.637H3.2245ZM21.9362 18.7156L15.6907 12.4701L21.9362 6.22445V18.7156Z" fill="#B1B1B1"/>
</svg>
