<svg width="1056" height="381" viewBox="0 0 1056 381" fill="none" xmlns="http://www.w3.org/2000/svg">
<circle cx="224" cy="7" r="7" fill="#2DC3F2"/>
<circle cx="594" cy="374" r="7" fill="#F5AB67"/>
<circle cx="1015" cy="7" r="7" fill="#3D349D"/>
<g filter="url(#filter0_d_236_246)">
<rect x="972" y="290" width="84" height="84" rx="10" fill="#F5AB67"/>
</g>
<path d="M1013.67 333.333H1003.05C1003.1 335.865 1003.49 338.379 1004.2 340.811L1006.52 341.211L1013.67 333.333ZM1013.67 333.333V341.876C1011.27 341.838 1008.88 341.616 1006.52 341.211L1013.67 333.333ZM1014.5 311.85H1014.5C1003.1 311.85 993.85 321.095 993.85 332.5C993.85 343.905 1003.1 353.15 1014.5 353.15C1025.9 353.15 1035.15 343.905 1035.15 332.5V332.5C1035.14 321.101 1025.9 311.863 1014.5 311.85ZM1022.77 322.146L1022.77 322.146C1020.31 321.726 1017.83 321.496 1015.33 321.457V313.572C1019.04 314.016 1022.29 317.405 1024.2 322.396L1022.77 322.146ZM1006.23 322.146L1004.8 322.394C1006.71 317.402 1009.96 314.012 1013.67 313.569V321.457C1011.17 321.496 1008.69 321.726 1006.23 322.146L1006.23 322.146ZM1006.23 342.854L1006.23 342.854C1008.69 343.275 1011.17 343.506 1013.67 343.546V351.432C1009.96 350.987 1006.71 347.598 1004.8 342.607L1006.23 342.854ZM1022.77 342.854L1024.2 342.606C1022.29 347.598 1019.04 350.988 1015.33 351.431V343.546C1017.83 343.506 1020.31 343.275 1022.77 342.854L1022.77 342.854ZM1033.46 333.333C1033.37 335.466 1032.92 337.567 1032.12 339.548L1026.61 340.5C1027.22 338.159 1027.56 335.754 1027.62 333.333H1033.46ZM995.54 333.333H1001.38C1001.44 335.754 1001.78 338.159 1002.39 340.5L996.878 339.548C996.083 337.567 995.631 335.466 995.54 333.333ZM996.878 325.452L1002.39 324.5C1001.78 326.841 1001.44 329.246 1001.38 331.667H995.54C995.631 329.534 996.083 327.433 996.878 325.452ZM1024.8 324.189C1025.51 326.621 1025.9 329.135 1025.95 331.667H1015.33V323.124C1017.73 323.162 1020.12 323.384 1022.48 323.789L1024.8 324.189ZM1006.52 323.789C1008.88 323.384 1011.27 323.162 1013.67 323.124V331.667H1003.05C1003.1 329.135 1003.49 326.621 1004.2 324.189L1006.52 323.789ZM1022.48 341.211C1020.12 341.616 1017.73 341.838 1015.33 341.876V333.333H1025.95C1025.9 335.865 1025.51 338.379 1024.8 340.811L1022.48 341.211ZM1033.46 331.667H1027.62C1027.56 329.246 1027.22 326.841 1026.61 324.5L1032.12 325.452C1032.92 327.433 1033.37 329.534 1033.46 331.667ZM1026.07 322.716C1025.12 319.679 1023.43 316.931 1021.14 314.723C1025.48 316.355 1029.08 319.513 1031.26 323.613L1026.07 322.716ZM1002.93 322.716L997.735 323.613C999.917 319.513 1003.52 316.355 1007.86 314.723C1005.57 316.931 1003.88 319.679 1002.93 322.716ZM1002.93 342.284C1003.88 345.321 1005.57 348.069 1007.86 350.277C1003.52 348.645 999.917 345.487 997.735 341.387L1002.93 342.284ZM1026.07 342.284L1031.26 341.387C1029.08 345.487 1025.48 348.645 1021.14 350.277C1023.43 348.069 1025.12 345.321 1026.07 342.284Z" fill="white" stroke="white" stroke-width="0.3"/>
<g filter="url(#filter1_d_236_246)">
<rect width="84" height="84" rx="10" fill="#C63973"/>
</g>
<path d="M38.7426 33.9643L38.7426 33.9643L38.7417 33.9615C38.1624 32.2068 37.868 30.3653 37.868 28.4876C37.868 27.0055 36.6626 25.8 35.1805 25.8H29.4874C28.0055 25.8 26.8 27.0055 26.8 28.4874C26.8 44.32 39.6801 57.2 55.5126 57.2C56.9946 57.2 58.2001 55.9945 58.2001 54.5125V48.8354C58.2 47.3534 56.9945 46.1479 55.5126 46.1479C53.6358 46.1479 51.7938 45.8545 50.0487 45.2779C49.1069 44.9571 48.0296 45.1985 47.3958 45.8346L44.024 48.3801C40.1202 46.2751 37.6944 43.8499 35.618 39.9762L38.0869 36.6943C38.7958 35.9789 39.0484 34.9384 38.7426 33.9643ZM36.4962 35.2959L36.488 35.3045L43.7336 50.3987L43.6409 50.5759C43.6412 50.576 43.6414 50.5762 43.6416 50.5763C44.0023 50.7646 44.4414 50.7241 44.7657 50.4793L44.766 50.4791L48.7764 47.4408L48.7873 47.4325L48.797 47.4228C48.9461 47.2738 49.17 47.2205 49.3716 47.2891L49.3733 47.2897C51.3439 47.9406 53.4094 48.2702 55.5126 48.2702C55.8242 48.2702 56.0778 48.5238 56.0778 48.8355V54.5126C56.0778 54.8242 55.8242 55.0778 55.5126 55.0778C40.8504 55.0778 28.9223 43.1496 28.9223 28.4875C28.9223 28.1758 29.1758 27.9223 29.4875 27.9223H35.1806C35.4923 27.9223 35.7458 28.1758 35.7458 28.4875C35.7458 30.5908 36.0761 32.6557 36.7224 34.6125C36.7845 34.8135 36.7462 35.0357 36.4962 35.2959Z" fill="white" stroke="white" stroke-width="0.4"/>
<defs>
<filter id="filter0_d_236_246" x="892" y="280" width="184" height="184" filterUnits="userSpaceOnUse" color-interpolation-filters="sRGB">
<feFlood flood-opacity="0" result="BackgroundImageFix"/>
<feColorMatrix in="SourceAlpha" type="matrix" values="0 0 0 0 0 0 0 0 0 0 0 0 0 0 0 0 0 0 127 0" result="hardAlpha"/>
<feOffset dx="-30" dy="40"/>
<feGaussianBlur stdDeviation="25"/>
<feColorMatrix type="matrix" values="0 0 0 0 0.960784 0 0 0 0 0.670588 0 0 0 0 0.403922 0 0 0 0.3 0"/>
<feBlend mode="normal" in2="BackgroundImageFix" result="effect1_dropShadow_236_246"/>
<feBlend mode="normal" in="SourceGraphic" in2="effect1_dropShadow_236_246" result="shape"/>
</filter>
<filter id="filter1_d_236_246" x="-20" y="-10" width="184" height="184" filterUnits="userSpaceOnUse" color-interpolation-filters="sRGB">
<feFlood flood-opacity="0" result="BackgroundImageFix"/>
<feColorMatrix in="SourceAlpha" type="matrix" values="0 0 0 0 0 0 0 0 0 0 0 0 0 0 0 0 0 0 127 0" result="hardAlpha"/>
<feOffset dx="30" dy="40"/>
<feGaussianBlur stdDeviation="25"/>
<feColorMatrix type="matrix" values="0 0 0 0 0.776471 0 0 0 0 0.223529 0 0 0 0 0.45098 0 0 0 0.3 0"/>
<feBlend mode="normal" in2="BackgroundImageFix" result="effect1_dropShadow_236_246"/>
<feBlend mode="normal" in="SourceGraphic" in2="effect1_dropShadow_236_246" result="shape"/>
</filter>
</defs>
</svg>
