<svg width="24" height="24" viewBox="0 0 24 24" fill="none" xmlns="http://www.w3.org/2000/svg">
<path d="M12.4375 0C7.78506 0 4 3.78506 4 8.4375C4 10.0094 4.43542 11.5434 5.25948 12.8743L11.9572 23.6676C12.0855 23.8744 12.3115 24 12.5546 24C12.5565 24 12.5583 24 12.5602 24C12.8054 23.9981 13.0319 23.8686 13.1579 23.6582L19.6849 12.7603C20.4635 11.4576 20.875 9.96277 20.875 8.4375C20.875 3.78506 17.0899 0 12.4375 0ZM18.4781 12.0383L12.544 21.9462L6.4547 12.1334C5.76878 11.0257 5.39688 9.74766 5.39688 8.4375C5.39688 4.56047 8.56047 1.39687 12.4375 1.39687C16.3145 1.39687 19.4734 4.56047 19.4734 8.4375C19.4734 9.7088 19.126 10.9541 18.4781 12.0383Z" fill="#B1B1B1"/>
<path d="M12.4375 4.21875C10.1113 4.21875 8.21875 6.11128 8.21875 8.4375C8.21875 10.7489 10.0805 12.6562 12.4375 12.6562C14.8236 12.6562 16.6562 10.7235 16.6562 8.4375C16.6562 6.11128 14.7637 4.21875 12.4375 4.21875ZM12.4375 11.2594C10.8786 11.2594 9.61563 9.9922 9.61563 8.4375C9.61563 6.88669 10.8867 5.61563 12.4375 5.61563C13.9883 5.61563 15.2547 6.88669 15.2547 8.4375C15.2547 9.96952 14.0211 11.2594 12.4375 11.2594Z" fill="#B1B1B1"/>
</svg>
