<svg width="18" height="18" viewBox="0 0 18 18" fill="none" xmlns="http://www.w3.org/2000/svg">
<path d="M17.9965 0.33972C17.9938 0.318977 17.9907 0.299016 17.9844 0.278665C17.9778 0.256356 17.9688 0.236004 17.9586 0.215261C17.9531 0.203911 17.9511 0.191779 17.9445 0.18082C17.9402 0.173775 17.9331 0.169079 17.9281 0.162425C17.9151 0.144422 17.8999 0.128767 17.8838 0.11272C17.8678 0.0966736 17.8517 0.0818012 17.8333 0.0688857C17.8267 0.0641892 17.8224 0.0575357 17.8157 0.0536219C17.8048 0.0469685 17.7926 0.045403 17.7813 0.0399237C17.7598 0.0293564 17.7386 0.0203547 17.7159 0.0137013C17.6968 0.00861338 17.678 0.00587372 17.6584 0.00352545C17.6353 0.000785801 17.613 -0.000779714 17.5899 0.000394422C17.5684 0.00156856 17.5476 0.00587372 17.5265 0.0109616C17.5132 0.0140927 17.4995 0.0129185 17.4862 0.0176151L0.265523 5.8883C0.109754 5.94074 0.00369063 6.08594 0.0005596 6.25071C-0.00257143 6.41548 0.0976215 6.5646 0.251825 6.6237L8.2974 9.7152L11.774 17.7635C11.8362 17.9071 11.9779 17.9995 12.1333 17.9995C12.14 17.9995 12.1462 17.9995 12.1529 17.9991C12.3161 17.9909 12.4566 17.8825 12.5063 17.7271L17.9856 0.506447C17.9895 0.494314 17.9883 0.48179 17.9907 0.469266C17.9954 0.447349 17.9989 0.426214 17.9997 0.403906C18.0005 0.381989 17.9993 0.361246 17.9965 0.33972ZM1.54024 6.28007L16.1453 1.30095L8.49426 8.95201L1.54024 6.28007ZM12.0773 16.4923L9.05589 9.49759L16.7516 1.80152L12.0773 16.4923Z" fill="white"/>
<path d="M6.14748 11.8522C5.99446 11.6992 5.7471 11.6992 5.59407 11.8522L0.114772 17.3315C-0.0382573 17.4846 -0.0382573 17.7319 0.114772 17.885C0.191091 17.9613 0.291284 17.9996 0.391477 17.9996C0.49167 17.9996 0.591863 17.9613 0.668181 17.885L6.14748 12.4057C6.30051 12.2526 6.30051 12.0053 6.14748 11.8522Z" fill="white"/>
<path d="M7.15948 14.5919L4.41983 17.3316C4.2668 17.4846 4.2668 17.7319 4.41983 17.885C4.49615 17.9613 4.59634 17.9997 4.69654 17.9997C4.79673 17.9997 4.89692 17.9613 4.97324 17.885L7.71289 15.1453C7.86592 14.9923 7.86592 14.7449 7.71289 14.5919C7.55986 14.4389 7.31251 14.4389 7.15948 14.5919Z" fill="white"/>
<path d="M0.391477 13.6941C0.49167 13.6941 0.591863 13.6557 0.668181 13.5794L3.40783 10.8398C3.56086 10.6868 3.56086 10.4394 3.40783 10.2864C3.2548 10.1333 3.00745 10.1333 2.85442 10.2864L0.114772 13.026C-0.0382573 13.179 -0.0382573 13.4264 0.114772 13.5794C0.191091 13.6557 0.291284 13.6941 0.391477 13.6941Z" fill="white"/>
</svg>
