<svg width="24" height="24" viewBox="0 0 24 24" fill="none" xmlns="http://www.w3.org/2000/svg">
<path d="M9.89832 7.59932L9.8983 7.59933C10.0845 8.19251 9.9318 8.82698 9.50119 9.26453L8.10329 11.1227C9.28704 13.3143 10.6685 14.6955 12.8774 15.8955L14.7876 14.4535C15.1803 14.0629 15.8372 13.9192 16.4098 14.1141C17.4143 14.4459 18.4749 14.6149 19.5557 14.6149C20.4625 14.6149 21.2 15.3524 21.2 16.2593V19.5556C21.2 20.4625 20.4625 21.2 19.5557 21.2C10.3163 21.2 2.8 13.6837 2.8 4.44431C2.8 3.5375 3.5375 2.8 4.44431 2.8H7.74998C8.65685 2.8 9.39434 3.53749 9.3943 4.44441L9.89832 7.59932ZM9.89832 7.59932L9.8974 7.59653M9.89832 7.59932L9.8974 7.59653M9.8974 7.59653C9.56386 6.58627 9.3943 5.52591 9.3943 4.44442L9.8974 7.59653ZM8.45344 8.33954L8.44521 8.3481L8.43806 8.35758L6.7193 10.6339L6.71921 10.634C6.55806 10.8477 6.53266 11.1341 6.65367 11.3727L6.65377 11.3729C8.07576 14.1679 9.81082 15.9028 12.6243 17.3446C12.863 17.4691 13.1525 17.4419 13.3661 17.2807L13.3664 17.2805L15.695 15.5164L15.7059 15.5081L15.7156 15.4984C15.7797 15.4343 15.8763 15.4113 15.9629 15.4408L15.9646 15.4414C17.1175 15.8222 18.3257 16.015 19.5557 16.015C19.6903 16.015 19.8 16.1246 19.8 16.2593V19.5557C19.8 19.6903 19.6903 19.8 19.5557 19.8C11.0885 19.8 4.20003 12.9115 4.20003 4.44436C4.20003 4.30971 4.30971 4.20003 4.44436 4.20003H7.75003C7.88468 4.20003 7.99436 4.30971 7.99436 4.44436C7.99436 5.67414 8.18739 6.88172 8.56537 8.02628C8.59024 8.1075 8.58202 8.20569 8.45344 8.33954Z" fill="#B1B1B1" stroke="#B1B1B1" stroke-width="0.4"/>
</svg>
