<svg width="24" height="24" viewBox="0 0 24 24" fill="none" xmlns="http://www.w3.org/2000/svg">
<path d="M12.0002 0.85H12C5.84209 0.85 0.85 5.84209 0.85 12C0.85 18.1579 5.84209 23.15 12 23.15C18.1579 23.15 23.15 18.1579 23.15 12V11.9998C23.1431 5.84492 18.1551 0.856896 12.0002 0.85ZM16.4481 6.37568L16.4476 6.3756C15.1485 6.15361 13.8343 6.02999 12.5167 6.00619V1.92276C14.4067 2.19044 16.0845 3.9193 17.0954 6.48848L16.4481 6.37568ZM7.55241 6.37565L6.90443 6.48776C7.91536 3.9176 9.59321 2.18801 11.4833 1.92108V6.00619C10.1657 6.02999 8.85184 6.15361 7.55271 6.3756L7.55241 6.37565ZM7.55215 17.6244L7.55232 17.6244C8.85147 17.8467 10.1655 17.9709 11.4833 17.9957V22.0792C9.59313 21.8113 7.91527 20.0822 6.90438 17.5128L7.55215 17.6244ZM16.4476 17.6244L17.0956 17.5122C16.0846 20.0824 14.4068 21.812 12.5167 22.0789V17.9957C13.8343 17.9709 15.1482 17.8467 16.4473 17.6244L16.4476 17.6244ZM22.1011 12.5167C22.0461 13.6152 21.8111 14.6974 21.4055 15.72L18.59 16.2058C18.9007 14.9995 19.0743 13.762 19.1075 12.5167H22.1011ZM1.89894 12.5167H4.89254C4.92574 13.762 5.09934 14.9995 5.40995 16.2058L2.59454 15.72C2.18887 14.6974 1.9539 13.6152 1.89894 12.5167ZM2.59454 8.28L5.40995 7.7942C5.09934 9.00049 4.92574 10.238 4.89254 11.4833H1.89894C1.9539 10.3848 2.18887 9.30256 2.59454 8.28ZM17.4738 7.60136C17.8369 8.86491 18.0387 10.1692 18.0744 11.4833H12.5167V7.03964C13.7754 7.06335 15.0308 7.18175 16.2721 7.39406C16.2721 7.39407 16.2721 7.39407 16.2721 7.39408L17.4738 7.60136ZM7.72824 7.39408C7.72829 7.39407 7.72833 7.39406 7.72838 7.39405C8.96941 7.18175 10.2246 7.06335 11.4833 7.03964V11.4833H5.9256C5.96132 10.1692 6.16311 8.86491 6.52621 7.60137L7.72824 7.39408ZM5.9256 12.5167H11.4833V16.9604C10.2245 16.9367 8.96913 16.8182 7.72788 16.6059L6.52621 16.3986C6.16311 15.1351 5.96132 13.8308 5.9256 12.5167ZM16.2718 16.6059C15.0307 16.8182 13.7755 16.9367 12.5167 16.9604V12.5167H18.0744C18.0387 13.8308 17.8369 15.1351 17.4738 16.3986L16.2718 16.6059ZM22.1011 11.4833H19.1075C19.0743 10.238 18.9007 9.00049 18.59 7.7942L21.4055 8.28C21.8111 9.30256 22.0461 10.3848 22.1011 11.4833ZM18.2597 6.68862C17.7796 5.1711 16.954 3.78883 15.8512 2.649C17.9803 3.53078 19.7513 5.11237 20.8665 7.13841L18.2597 6.68862ZM5.74026 6.68862L3.13348 7.13841C4.24872 5.11237 6.01967 3.53078 8.14881 2.649C7.04601 3.78883 6.22041 5.1711 5.74026 6.68862ZM5.74026 17.3114C6.22041 18.8289 7.04601 20.2112 8.1488 21.351C6.01967 20.4692 4.24872 18.8876 3.13348 16.8616L5.74026 17.3114ZM18.2597 17.3114L20.8665 16.8616C19.7513 18.8876 17.9803 20.4692 15.8512 21.351C16.954 20.2112 17.7796 18.8289 18.2597 17.3114Z" fill="#B1B1B1" stroke="#B1B1B1" stroke-width="0.3"/>
</svg>
