<svg width="23" height="23" viewBox="0 0 23 23" fill="none" xmlns="http://www.w3.org/2000/svg">
<g clip-path="url(#clip0_225_116)">
<path d="M11.5205 0C11.0727 0 10.6235 0.0380781 10.1855 0.113357C10.0023 0.144767 9.87927 0.318838 9.91068 0.502034C9.94209 0.685406 10.1163 0.808414 10.2994 0.777004C10.6998 0.708217 11.1108 0.673298 11.5205 0.673298C15.4706 0.673298 18.6843 3.88695 18.6843 7.83707C18.6843 9.4932 18.0745 11.1283 16.9672 12.4408C16.6273 12.8437 16.2197 13.1919 15.8254 13.5284C14.9896 14.2424 14.1272 14.9787 13.8703 16.2558H13.7896C13.801 16.1337 13.8225 15.973 13.8625 15.7703C13.9601 15.2748 14.1905 14.4225 14.7329 13.1754C14.9598 12.6537 14.7584 12.0469 14.2642 11.7635C13.9778 11.5994 13.6355 11.5703 13.3254 11.6838C13.0157 11.7972 12.7736 12.0399 12.6611 12.3498L12.6353 12.4212C12.6255 12.448 12.6156 12.4752 12.6058 12.5022C11.7365 12.2604 10.8723 12.3761 10.4238 12.47C10.4178 12.4536 10.4118 12.4373 10.406 12.4212L10.3801 12.3498C10.2676 12.04 10.0254 11.7972 9.71572 11.6838C9.40566 11.5703 9.06348 11.5994 8.77693 11.7635C8.28279 12.0469 8.08135 12.6537 8.30824 13.1754C8.3314 13.2287 8.35404 13.2814 8.37615 13.3333C8.44897 13.5044 8.64655 13.5842 8.81764 13.5114C8.98873 13.4388 9.06857 13.241 8.99575 13.0699C8.97294 13.0162 8.9496 12.9618 8.92556 12.9067C8.83589 12.7004 8.91591 12.46 9.11174 12.3477C9.22545 12.2826 9.36109 12.271 9.48427 12.3161C9.60675 12.361 9.70256 12.457 9.74713 12.5795L9.7731 12.651C9.81206 12.7581 9.85207 12.8683 9.89243 12.9811L10.2983 14.2184C10.4696 14.8122 10.624 15.4832 10.7258 16.2558H9.9277C9.90208 15.9258 9.81469 15.3714 9.55095 14.5464C9.49445 14.3693 9.30494 14.2716 9.12788 14.3282C8.95065 14.3849 8.85309 14.5743 8.90959 14.7515C9.14385 15.4841 9.22457 15.9738 9.25124 16.2558H9.16929C8.90924 15.0154 8.00642 14.2045 7.13133 13.4188C6.71457 13.0446 6.32116 12.6912 5.99741 12.2966C4.9242 10.9881 4.35689 9.446 4.35689 7.83707C4.35689 6.37659 4.79347 4.97191 5.61943 3.77464C6.42644 2.60458 7.54791 1.70825 8.86239 1.1827C9.03506 1.11374 9.11893 0.917735 9.04997 0.745067C8.98083 0.5724 8.785 0.488347 8.61234 0.557484C7.17432 1.13252 5.94775 2.11272 5.06511 3.39228C4.16141 4.70256 3.68359 6.23954 3.68359 7.83707C3.68359 9.60357 4.30372 11.2932 5.47695 12.7235C5.83316 13.158 6.26448 13.5453 6.68141 13.9197C7.51018 14.6639 8.29578 15.3699 8.51126 16.4006C8.25068 16.5657 8.07679 16.856 8.07679 17.1867V17.8772C8.07679 18.096 8.15312 18.297 8.27999 18.4561C8.15312 18.6153 8.07679 18.8162 8.07679 19.035V19.7255C8.07679 20.147 8.3586 20.5036 8.74342 20.6178V20.8015C8.74342 22.0139 9.72976 23 10.9419 23H12.0994C13.3116 23 14.2979 22.0139 14.2979 20.8015V20.6178C14.6827 20.5036 14.9645 20.147 14.9645 19.7255V19.035C14.9645 18.8162 14.8882 18.6153 14.7613 18.4561C14.8882 18.297 14.9645 18.096 14.9645 17.8772V17.1867C14.9645 16.8554 14.7901 16.5647 14.5285 16.3997C14.7364 15.3446 15.4476 14.7367 16.2629 14.0405C16.6777 13.6864 17.1066 13.32 17.4821 12.875C18.6916 11.4411 19.3577 9.65183 19.3577 7.83707C19.3576 3.51564 15.8419 0 11.5205 0V0ZM12.7425 14.2193L13.1327 13.0301C13.1349 13.0236 13.1364 13.0169 13.1382 13.0102C13.1822 12.8871 13.2258 12.7674 13.268 12.651L13.294 12.5795C13.3384 12.457 13.4342 12.361 13.5569 12.3161C13.6799 12.271 13.8157 12.2826 13.9294 12.3477C14.1252 12.46 14.2053 12.7004 14.1154 12.9067C13.6462 13.9859 13.3342 14.9289 13.1885 15.7098C13.1466 15.9342 13.1247 16.1153 13.1138 16.2558H12.3154C12.417 15.4836 12.5714 14.8131 12.7425 14.2193ZM10.6522 13.1111C11.0432 13.0378 11.7149 12.9644 12.3796 13.1382C12.3082 13.3456 12.2364 13.5633 12.1666 13.7925H10.8746C10.8016 13.5533 10.7266 13.3268 10.6522 13.1111ZM11.9769 14.4658C11.84 14.9989 11.72 15.5908 11.6366 16.2557H11.4043C11.3211 15.5908 11.2011 14.9989 11.0641 14.4658H11.9769ZM13.6244 20.8015C13.6244 21.6424 12.9403 22.3266 12.0994 22.3266H10.9418C10.1009 22.3266 9.41671 21.6424 9.41671 20.8015V20.6564H13.6244V20.8015ZM14.2911 19.7253C14.2911 19.8675 14.1756 19.9831 14.0335 19.9831H9.00751C8.86555 19.9831 8.74991 19.8675 8.74991 19.7253V19.035C8.74991 18.9315 8.81133 18.8423 8.89959 18.8013C8.93504 18.8055 8.97101 18.8081 9.00751 18.8081H14.0335C14.07 18.8081 14.1059 18.8055 14.1414 18.8013C14.2296 18.8422 14.2911 18.9315 14.2911 19.035V19.7253ZM14.2911 17.8772C14.2911 17.9808 14.2296 18.0699 14.1414 18.1108C14.1059 18.1067 14.0701 18.1041 14.0335 18.1041H9.00751C8.97101 18.1041 8.93504 18.1067 8.89959 18.1108C8.8115 18.0699 8.74991 17.9808 8.74991 17.8772V17.1867C8.74991 17.0446 8.86555 16.9291 9.00768 16.9291H14.0335C14.1756 16.9291 14.2912 17.0446 14.2912 17.1867V17.8772H14.2911Z" fill="white"/>
</g>
<defs>
<clipPath id="clip0_225_116">
<rect width="23" height="23" fill="white"/>
</clipPath>
</defs>
</svg>
