<svg width="23" height="23" viewBox="0 0 23 23" fill="none" xmlns="http://www.w3.org/2000/svg">
<g clip-path="url(#clip0_225_89)">
<path d="M4.04525 17.7868C3.72325 17.7868 3.41371 17.8671 3.13909 18.0181C1.69247 16.1636 0.898438 13.86 0.898438 11.5C0.898438 5.65419 5.65419 0.898438 11.5 0.898438C12.2107 0.898438 12.921 0.969154 13.6113 1.10866C13.8542 1.15779 14.0914 1.00056 14.1406 0.757355C14.1897 0.514145 14.0325 0.277252 13.7893 0.227943C13.0405 0.076683 12.2703 0 11.5 0C8.42829 0 5.54031 1.19622 3.36826 3.36826C1.19622 5.54031 0 8.42829 0 11.5C0 14.0839 0.87738 16.6055 2.47474 18.627C2.26908 18.9342 2.15853 19.2953 2.15853 19.6735C2.15853 20.1775 2.35489 20.6513 2.71128 21.0075C3.0675 21.3639 3.54128 21.5602 4.04525 21.5602C4.54922 21.5602 5.023 21.3639 5.37939 21.0075C5.73579 20.6513 5.93197 20.1773 5.93197 19.6733C5.93197 19.1695 5.73579 18.6956 5.37939 18.3394C5.023 17.983 4.54922 17.7868 4.04525 17.7868ZM4.744 20.3722C4.55746 20.559 4.30917 20.6618 4.04525 20.6618C3.78133 20.6618 3.53321 20.559 3.3465 20.3722C3.1598 20.1855 3.05697 19.9374 3.05697 19.6735C3.05697 19.4094 3.1598 19.1613 3.3465 18.9746C3.53304 18.7879 3.78133 18.6852 4.04525 18.6852C4.30917 18.6852 4.55729 18.788 4.744 18.9746C4.9307 19.1613 5.03353 19.4094 5.03353 19.6735C5.03353 19.9374 4.9307 20.1855 4.744 20.3722Z" fill="white"/>
<path d="M20.5249 4.37267C21.0133 3.64006 20.9348 2.63844 20.2889 1.99252C19.9325 1.6363 19.4587 1.43994 18.9547 1.43994C18.4508 1.43994 17.977 1.6363 17.6206 1.99252C17.2642 2.34891 17.068 2.82269 17.068 3.32666C17.068 3.83063 17.2642 4.30441 17.6206 4.6608C17.977 5.0172 18.4508 5.21338 18.9547 5.21338C19.2767 5.21338 19.5863 5.13301 19.8609 4.9821C21.3075 6.83671 22.1016 9.14018 22.1016 11.5002C22.1016 17.346 17.3458 22.1017 11.5 22.1017C10.7963 22.1017 10.0927 22.0324 9.40884 21.8955C9.16563 21.8469 8.92892 22.0047 8.88013 22.2479C8.83153 22.4913 8.98928 22.7278 9.23249 22.7766C9.97423 22.9249 10.7372 23.0002 11.5 23.0002C14.5717 23.0002 17.4597 21.8039 19.6317 19.6319C21.8038 17.4599 23 14.5719 23 11.5002C23 8.9161 22.1224 6.39433 20.5249 4.37267ZM18.256 4.02558C18.0693 3.83887 17.9665 3.59075 17.9665 3.32666C17.9665 3.06274 18.0693 2.81462 18.256 2.62791C18.4425 2.44121 18.6908 2.33838 18.9547 2.33838C19.2187 2.33838 19.467 2.44121 19.6537 2.62791C20.0388 3.01326 20.0388 3.64024 19.6537 4.02558C19.467 4.21211 19.2187 4.31494 18.9547 4.31494C18.6906 4.31494 18.4425 4.21211 18.256 4.02558Z" fill="white"/>
<path d="M9.64624 19.2266C9.64624 19.4747 9.84751 19.6758 10.0955 19.6758H12.9043C13.1524 19.6758 13.3535 19.4747 13.3535 19.2266V18.3557C13.9442 18.1967 14.5089 17.9626 15.0395 17.6569L15.6544 18.2718C15.7386 18.356 15.8528 18.4034 15.9722 18.4034C16.0911 18.4034 16.2055 18.356 16.2898 18.2716L18.2751 16.2849C18.4504 16.1094 18.4504 15.825 18.2751 15.6497L17.6609 15.0355C17.9666 14.5049 18.2007 13.9402 18.3597 13.3495H19.2272C19.4754 13.3495 19.6765 13.1484 19.6765 12.9003V10.0915C19.6765 9.84333 19.4754 9.64223 19.2272 9.64223H18.3595C18.2005 9.05176 17.9666 8.48708 17.6609 7.95644L18.2718 7.3456C18.356 7.26138 18.4034 7.14697 18.4034 7.02782C18.4032 6.90867 18.3558 6.79426 18.2716 6.71003L16.2847 4.72469C16.1094 4.54939 15.8249 4.54939 15.6495 4.72487L15.0395 5.335C14.5089 5.02932 13.9442 4.79523 13.3535 4.63625V3.77344C13.3535 3.52531 13.1524 3.32422 12.9043 3.32422H10.0955C9.84751 3.32422 9.64624 3.52531 9.64624 3.77344V4.63643C9.05576 4.79523 8.49108 5.02932 7.96044 5.335L7.35031 4.72487C7.17501 4.54957 6.89056 4.54939 6.71509 4.72469L4.72835 6.71021C4.64394 6.79443 4.59657 6.90867 4.59657 7.02782C4.59657 7.14697 4.64394 7.26138 4.72817 7.3456L5.339 7.95644C5.03333 8.48708 4.79924 9.05158 4.64026 9.64223H3.77428C3.52616 9.64223 3.32507 9.84333 3.32507 10.0913L3.32349 12.9001C3.32331 13.0193 3.37069 13.1337 3.45492 13.2179C3.53915 13.3021 3.65338 13.3495 3.77271 13.3495H4.64026C4.79924 13.9402 5.03333 14.5049 5.339 15.0355L4.72484 15.6497C4.54954 15.825 4.54936 16.1094 4.72484 16.2849L6.71017 18.2716C6.7944 18.3559 6.90864 18.4034 7.02779 18.4034H7.02796C7.14711 18.4034 7.26135 18.356 7.34557 18.2718L7.96027 17.6569C8.49108 17.9626 9.05576 18.1967 9.64624 18.3557V19.2266ZM8.13644 16.7122C7.95869 16.5972 7.72478 16.6221 7.57492 16.7718L7.02796 17.3188L5.67767 15.9674L6.22411 15.4208C6.37379 15.2712 6.3987 15.0372 6.28377 14.8595C5.87649 14.2292 5.59011 13.5383 5.43288 12.8059C5.38831 12.599 5.20547 12.4511 4.99367 12.4511H4.2221L4.22315 10.5407H4.99367C5.20547 10.5407 5.38831 10.3929 5.43288 10.1859C5.59011 9.4536 5.87649 8.76275 6.28377 8.13244C6.3987 7.95468 6.37379 7.72077 6.22411 7.57109L5.68118 7.02799L7.03252 5.6777L7.57492 6.22028C7.72478 6.36996 7.95851 6.3947 8.13644 6.27994C8.76658 5.87266 9.45743 5.58628 10.1899 5.42905C10.3968 5.38448 10.5447 5.20146 10.5447 4.98984V4.22266H12.4551V4.98966C12.4551 5.20146 12.6028 5.38448 12.8099 5.42888C13.5422 5.58628 14.2332 5.87248 14.8633 6.27976C15.0411 6.3947 15.275 6.36996 15.4247 6.2201L15.9672 5.6777L17.3186 7.02799L16.7757 7.57092C16.6258 7.72077 16.6011 7.95468 16.716 8.13244C17.1233 8.76275 17.4095 9.4536 17.5669 10.1859C17.6113 10.3929 17.7943 10.5407 18.0061 10.5407H18.778V12.4511H18.0061C17.7943 12.4511 17.6115 12.599 17.5669 12.8059C17.4097 13.5382 17.1233 14.2292 16.716 14.8593C16.6011 15.0372 16.626 15.2712 16.7757 15.4208L17.3221 15.9673L15.9718 17.3186L15.4248 16.7718C15.275 16.622 15.0411 16.5972 14.8633 16.7122C14.233 17.1194 13.5422 17.4056 12.8099 17.563C12.6028 17.6076 12.4551 17.7905 12.4551 18.0023V18.7773H10.5447V18.0023C10.5447 17.7906 10.3968 17.6076 10.1899 17.563C9.4576 17.4058 8.76675 17.1194 8.13644 16.7122Z" fill="white"/>
<path d="M15.2118 11.4999C15.2118 9.45318 13.5467 7.78809 11.5 7.78809C9.45324 7.78809 7.78815 9.45318 7.78815 11.4999C7.78815 13.5467 9.45324 15.2118 11.5 15.2118C13.5467 15.2118 15.2118 13.5467 15.2118 11.4999ZM8.68658 11.4999C8.68658 9.94855 9.94861 8.68652 11.5 8.68652C13.0514 8.68652 14.3134 9.94872 14.3134 11.4999C14.3134 13.0511 13.0514 14.3133 11.5 14.3133C9.94861 14.3133 8.68658 13.0513 8.68658 11.4999Z" fill="white"/>
<path d="M15.6363 1.69877C15.7546 1.69877 15.8704 1.65069 15.9539 1.56716C16.0374 1.48311 16.0855 1.36729 16.0855 1.24902C16.0855 1.13145 16.0376 1.01546 15.9539 0.931412C15.8704 0.847885 15.7546 0.799805 15.6363 0.799805C15.5177 0.799805 15.4024 0.847885 15.3189 0.931412C15.2352 1.01546 15.1871 1.13093 15.1871 1.24902C15.1871 1.36765 15.2352 1.48311 15.3189 1.56716C15.4024 1.65069 15.5177 1.69877 15.6363 1.69877Z" fill="white"/>
<path d="M7.38336 21.3091C7.26527 21.3091 7.14928 21.3572 7.06575 21.4407C6.98222 21.5242 6.93414 21.6402 6.93414 21.7583C6.93414 21.8769 6.98222 21.9924 7.06575 22.0759C7.14928 22.1594 7.26527 22.2075 7.38336 22.2075C7.50146 22.2075 7.61745 22.1594 7.70097 22.0759C7.7845 21.9924 7.83258 21.8764 7.83258 21.7583C7.83258 21.6402 7.7845 21.5242 7.70097 21.4407C7.61745 21.3572 7.50146 21.3091 7.38336 21.3091Z" fill="white"/>
</g>
<defs>
<clipPath id="clip0_225_89">
<rect width="23" height="23" fill="white"/>
</clipPath>
</defs>
</svg>
