<svg width="23" height="23" viewBox="0 0 23 23" fill="none" xmlns="http://www.w3.org/2000/svg">
<g clip-path="url(#clip0_225_96)">
<path d="M19.4062 4.49219C19.1583 4.49219 18.957 4.69344 18.957 4.94141C18.957 5.18937 19.1583 5.39062 19.4062 5.39062C19.6542 5.39062 19.8555 5.18937 19.8555 4.94141C19.8555 4.69344 19.6542 4.49219 19.4062 4.49219Z" fill="white"/>
<path d="M3.59375 4.49219C3.34578 4.49219 3.14453 4.69344 3.14453 4.94141C3.14453 5.18937 3.34578 5.39062 3.59375 5.39062C3.84172 5.39062 4.04297 5.18937 4.04297 4.94141C4.04297 4.69344 3.84172 4.49219 3.59375 4.49219Z" fill="white"/>
<path d="M22.5508 9.88303H22.0135C21.8456 8.5891 21.4398 7.35604 20.8031 6.21269C20.6824 5.99598 20.4089 5.91804 20.1921 6.03875C19.9753 6.15945 19.8975 6.43303 20.0182 6.64978C20.58 7.65886 20.9456 8.74439 21.1076 9.88303H20.7539C20.5058 9.88303 20.3047 10.0841 20.3047 10.3322V12.1291C20.3047 12.3772 20.5058 12.5783 20.7539 12.5783H22.5508C22.7989 12.5783 23 12.3772 23 12.1291V10.3322C23 10.0841 22.7989 9.88303 22.5508 9.88303ZM22.1015 11.6799H21.2031V10.7815H21.6109C21.611 10.7815 21.6112 10.7815 21.6114 10.7815C21.6115 10.7815 21.6117 10.7815 21.6119 10.7815H22.1015V11.6799Z" fill="white"/>
<path d="M16.4406 13.1451C16.4403 13.1381 16.4401 13.1312 16.4395 13.1242C16.4387 13.1147 16.4374 13.1053 16.436 13.0959C16.4352 13.0902 16.4345 13.0844 16.4334 13.0787C16.4313 13.0677 16.4286 13.0569 16.4258 13.0462C16.4247 13.0421 16.4238 13.038 16.4226 13.0339C16.4186 13.0205 16.414 13.0074 16.4087 12.9945C16.4082 12.9931 16.4078 12.9916 16.4072 12.9902C16.401 12.9752 16.394 12.9606 16.3863 12.9465L11.8942 4.72596C11.8154 4.58185 11.6643 4.49219 11.5 4.49219C11.3357 4.49219 11.1846 4.58185 11.1058 4.72601L6.61371 12.9465C6.60599 12.9606 6.59902 12.9752 6.59282 12.9902C6.59224 12.9916 6.59184 12.9931 6.59125 12.9945C6.58604 13.0074 6.58137 13.0206 6.57737 13.034C6.57616 13.038 6.57531 13.0421 6.57423 13.0462C6.57135 13.0569 6.5687 13.0677 6.56663 13.0787C6.56556 13.0844 6.56488 13.0902 6.56398 13.096C6.56259 13.1053 6.56129 13.1147 6.56048 13.1242C6.5599 13.1312 6.55967 13.1382 6.55945 13.1451C6.55922 13.1508 6.55859 13.1564 6.55859 13.1621C6.55859 13.1651 6.559 13.1679 6.55904 13.1709C6.55918 13.1779 6.55963 13.1849 6.56012 13.192C6.5607 13.2009 6.56142 13.2098 6.56255 13.2186C6.56336 13.2248 6.56434 13.231 6.56538 13.2372C6.56699 13.2469 6.56893 13.2565 6.57117 13.266C6.57243 13.2713 6.57382 13.2767 6.5753 13.282C6.57813 13.2922 6.58137 13.3023 6.58487 13.3122C6.58586 13.315 6.58649 13.3179 6.58757 13.3207L8.20763 17.6139C8.07767 17.6783 7.95746 17.7639 7.85185 17.8694C7.59723 18.124 7.45703 18.4624 7.45703 18.8223C7.45703 19.4079 7.83262 19.9072 8.35547 20.0927V22.5508C8.35547 22.7989 8.55658 23 8.80469 23H14.1953C14.4434 23 14.6445 22.7989 14.6445 22.5508V20.0934C14.8318 20.0273 15.0035 19.9198 15.1482 19.7751C15.4028 19.5205 15.543 19.1821 15.543 18.8223C15.543 18.2934 15.2366 17.835 14.7922 17.6145L16.4125 13.3207C16.4136 13.3179 16.4142 13.315 16.4152 13.3122C16.4187 13.3023 16.4219 13.2922 16.4247 13.282C16.4262 13.2767 16.4276 13.2713 16.4289 13.266C16.4311 13.2565 16.433 13.2469 16.4347 13.2372C16.4357 13.231 16.4367 13.2248 16.4375 13.2186C16.4386 13.2098 16.4393 13.2009 16.4399 13.192C16.4404 13.1849 16.4409 13.1779 16.441 13.1709C16.441 13.1679 16.4415 13.1651 16.4415 13.1621C16.4414 13.1564 16.4408 13.1508 16.4406 13.1451ZM11.5 12.7129C11.7477 12.7129 11.9492 12.9144 11.9492 13.1621C11.9492 13.4098 11.7477 13.6113 11.5 13.6113C11.2523 13.6113 11.0508 13.4098 11.0508 13.1621C11.0508 12.9144 11.2523 12.7129 11.5 12.7129ZM13.7461 22.1016H9.25391V20.1699H13.7461V22.1016ZM14.5129 19.1398C14.428 19.2247 14.3152 19.2715 14.1953 19.2715H8.80469C8.55699 19.2715 8.35547 19.07 8.35547 18.8223C8.35547 18.7024 8.40223 18.5896 8.48713 18.5048C8.57208 18.4198 8.68484 18.373 8.80469 18.373H14.1923C14.1933 18.373 14.1943 18.3732 14.1953 18.3732C14.1958 18.3732 14.1963 18.3731 14.1968 18.3731C14.4438 18.3739 14.6446 18.5751 14.6446 18.8223C14.6445 18.9421 14.5978 19.0549 14.5129 19.1398ZM13.8847 17.4746H9.11532L7.65747 13.6113H8.80469C9.05279 13.6113 9.25391 13.4102 9.25391 13.1621C9.25391 12.914 9.05279 12.7129 8.80469 12.7129H7.7652L11.0508 6.70028V11.8917C10.5279 12.0772 10.1523 12.5765 10.1523 13.1621C10.1523 13.9052 10.7569 14.5098 11.5 14.5098C12.2431 14.5098 12.8477 13.9052 12.8477 13.1621C12.8477 12.5765 12.4721 12.0772 11.9492 11.8917V6.70028L15.2348 12.7129H14.1953C13.9472 12.7129 13.7461 12.914 13.7461 13.1621C13.7461 13.4102 13.9472 13.6113 14.1953 13.6113H15.3425L13.8847 17.4746Z" fill="white"/>
<path d="M2.80784 6.0383C2.59105 5.91755 2.31747 5.99544 2.19681 6.21224C1.56014 7.35559 1.15436 8.58865 0.986484 9.88258H0.449219C0.201115 9.88258 0 10.0837 0 10.3318V12.1287C0 12.3768 0.201115 12.5779 0.449219 12.5779H2.24609C2.4942 12.5779 2.69531 12.3768 2.69531 12.1287V10.3318C2.69531 10.0837 2.4942 9.88258 2.24609 9.88258H1.89233C2.05437 8.74395 2.4199 7.65841 2.98178 6.64933C3.10248 6.43258 3.02463 6.15901 2.80784 6.0383ZM1.79688 11.6795H0.898438V10.781H1.38813C1.38831 10.781 1.38845 10.781 1.38863 10.781C1.38876 10.781 1.38894 10.781 1.38907 10.781H1.79688V11.6795Z" fill="white"/>
<path d="M21.6523 0C21.0667 0 20.5674 0.375592 20.382 0.898438H12.8477V0.449219C12.8477 0.201115 12.6465 0 12.3984 0H10.6016C10.3535 0 10.1523 0.201115 10.1523 0.449219V0.898438H2.61805C2.43261 0.375592 1.93326 0 1.34766 0C0.604559 0 0 0.604559 0 1.34766C0 2.09075 0.604559 2.69531 1.34766 2.69531C1.93326 2.69531 2.43261 2.31972 2.61805 1.79688H7.13422C6.17608 2.1978 5.29741 2.71827 4.57417 3.32799C4.38446 3.48791 4.36034 3.77133 4.52026 3.96099C4.60912 4.06642 4.73611 4.12068 4.86392 4.12068C4.96616 4.12068 5.06894 4.086 5.15321 4.01494C6.44211 2.92837 8.28148 2.15234 10.1523 1.89206V2.24609C10.1523 2.4942 10.3535 2.69531 10.6016 2.69531H12.3984C12.6465 2.69531 12.8477 2.4942 12.8477 2.24609V1.89206C14.7185 2.15234 16.5579 2.92837 17.8468 4.01489C17.9311 4.08596 18.0338 4.12068 18.1361 4.12064C18.2639 4.12064 18.3909 4.06637 18.4797 3.96094C18.6397 3.77133 18.6155 3.48791 18.4258 3.32799C17.7026 2.71827 16.8239 2.1978 15.8658 1.79688H20.382C20.5674 2.31972 21.0667 2.69531 21.6523 2.69531C22.3954 2.69531 23 2.09075 23 1.34766C23 0.604559 22.3954 0 21.6523 0ZM1.34766 1.79688C1.09996 1.79688 0.898438 1.59536 0.898438 1.34766C0.898438 1.09996 1.09996 0.898438 1.34766 0.898438C1.59536 0.898438 1.79688 1.09996 1.79688 1.34766C1.79688 1.59536 1.59536 1.79688 1.34766 1.79688ZM11.9492 1.34766V1.38809V1.79688H11.0508V1.38809V1.34766V0.898438H11.9492V1.34766ZM21.6523 1.79688C21.4046 1.79688 21.2031 1.59536 21.2031 1.34766C21.2031 1.09996 21.4046 0.898438 21.6523 0.898438C21.9 0.898438 22.1016 1.09996 22.1016 1.34766C22.1016 1.59536 21.9 1.79688 21.6523 1.79688Z" fill="white"/>
</g>
<defs>
<clipPath id="clip0_225_96">
<rect width="23" height="23" fill="white"/>
</clipPath>
</defs>
</svg>
