<svg width="141" height="50" viewBox="0 0 141 50" fill="none" xmlns="http://www.w3.org/2000/svg">
<path d="M27.0833 27.0833V43.75H39.5833C40.7292 43.75 41.7104 43.3424 42.5271 42.5271C43.3424 41.7104 43.75 40.7292 43.75 39.5833V27.0833H27.0833ZM27.0833 22.9167H43.75V10.4167C43.75 9.27083 43.3424 8.28958 42.5271 7.47292C41.7104 6.65764 40.7292 6.25 39.5833 6.25H27.0833V22.9167ZM22.9167 22.9167V6.25H10.4167C9.27083 6.25 8.28958 6.65764 7.47292 7.47292C6.65764 8.28958 6.25 9.27083 6.25 10.4167V22.9167H22.9167ZM22.9167 27.0833H6.25V39.5833C6.25 40.7292 6.65764 41.7104 7.47292 42.5271C8.28958 43.3424 9.27083 43.75 10.4167 43.75H22.9167V27.0833Z" fill="#E05D5D"/>
<path d="M62 32.7612V32.3791L64.0391 31.4V18.3851L62 17.3821V17H66.5581L75.8662 27.4597V18.3373L73.1313 17.3821V17H79.5606V17.3821L77.5455 18.3612V32.8806H76.0581L65.7184 21.3701V31.4L68.4533 32.3791V32.7612H62Z" fill="white"/>
<path d="M81.6335 32.7612V32.3791L83.4088 31.591V20.5582L81.6335 19.7701V19.3881H93.2207V22.9701H92.8368L91.2775 20.606H86.9113V25.2866H90.006L91.1095 23.5672H91.4694V28.1045H91.1095L90.006 26.409H86.9113V31.5433H91.7573L93.4126 28.4627H93.7964V32.7612H81.6335Z" fill="white"/>
<path d="M95.3721 32.7612V32.3791L97.1473 31.5672L101.657 26.3373L97.2673 20.5343L95.7319 19.7701V19.3881H103.049V19.7701L101.442 20.5343V20.6537L104.32 24.403L107.511 20.6537V20.5582L105.928 19.7701V19.3881H110.894V19.7701L109.382 20.4627L105.088 25.3821L109.79 31.5194L111.493 32.3791V32.7612H104.08V32.3791L105.592 31.6388V31.5672L102.425 27.3642L98.8986 31.5194L98.8746 31.6149L100.53 32.3791V32.7612H95.3721Z" fill="white"/>
<path d="M120.994 33C119.778 33 118.698 32.8169 117.755 32.4507C116.827 32.0687 116.092 31.4478 115.548 30.5881C115.004 29.7124 114.732 28.5502 114.732 27.1015V20.5821L112.933 19.7701V19.3881H120.034V19.7701L118.211 20.5821V27.1254C118.211 28.208 118.371 29.0677 118.69 29.7045C119.01 30.3413 119.45 30.795 120.01 31.0657C120.586 31.3204 121.241 31.4478 121.977 31.4478C122.633 31.4478 123.233 31.3204 123.776 31.0657C124.32 30.8109 124.752 30.4209 125.072 29.8955C125.408 29.3542 125.576 28.6458 125.576 27.7701V20.5343L123.632 19.7701V19.3881H128.862V19.7701L127.063 20.5582V27.3403C127.063 29.2985 126.535 30.7313 125.48 31.6388C124.424 32.5463 122.929 33 120.994 33Z" fill="white"/>
<path d="M135.674 33C134.763 33 133.955 32.9045 133.251 32.7134C132.564 32.5224 131.9 32.2677 131.26 31.9493L131.044 28.5582H131.428L133.083 31.1134C133.803 31.5751 134.635 31.806 135.578 31.806C136.362 31.806 136.978 31.6547 137.425 31.3522C137.873 31.0498 138.097 30.596 138.097 29.991C138.097 29.5453 137.977 29.195 137.737 28.9403C137.497 28.6697 137.106 28.407 136.562 28.1522C136.034 27.8816 135.33 27.5393 134.451 27.1254C133.459 26.6796 132.715 26.1542 132.22 25.5493C131.74 24.9443 131.5 24.196 131.5 23.3045C131.5 22.5403 131.724 21.8478 132.172 21.2269C132.636 20.59 133.243 20.0806 133.995 19.6985C134.763 19.3164 135.594 19.1254 136.49 19.1254C137.226 19.1254 137.913 19.2129 138.553 19.3881C139.193 19.5473 139.777 19.7701 140.304 20.0567L140.52 23.3045H140.136L138.385 20.7493C138.113 20.59 137.833 20.4786 137.545 20.4149C137.274 20.3512 136.962 20.3194 136.61 20.3194C135.97 20.3194 135.45 20.4866 135.05 20.8209C134.667 21.1393 134.475 21.5771 134.475 22.1343C134.475 22.5005 134.563 22.8109 134.739 23.0657C134.931 23.3045 135.234 23.5433 135.65 23.7821C136.082 24.0209 136.642 24.3075 137.33 24.6418C138.177 25.0557 138.873 25.4617 139.417 25.8597C139.96 26.2577 140.36 26.6955 140.616 27.1731C140.872 27.6507 141 28.2239 141 28.8925C141 29.7204 140.76 30.4448 140.28 31.0657C139.816 31.6866 139.177 32.1642 138.361 32.4985C137.561 32.8328 136.666 33 135.674 33Z" fill="white"/>
</svg>
