<svg width="266" height="261" viewBox="0 0 266 261" fill="none" xmlns="http://www.w3.org/2000/svg">
<circle cx="171.5" cy="166.5" r="94.5" fill="#F5AB67"/>
<circle cx="148.5" cy="18.5" r="15" stroke="#2364FF" stroke-width="7"/>
<path d="M189 216.5C189 204.09 186.556 191.802 181.807 180.336C177.058 168.871 170.097 158.454 161.322 149.678C152.546 140.903 142.129 133.942 130.664 129.193C119.198 124.444 106.91 122 94.5 122C82.0901 122 69.8017 124.444 58.3364 129.193C46.8711 133.942 36.4535 140.903 27.6784 149.678C18.9033 158.454 11.9425 168.871 7.19338 180.336C2.44431 191.802 -1.08491e-06 204.09 0 216.5H26.7744C26.7744 207.606 28.5261 198.799 31.9297 190.583C35.3332 182.366 40.3218 174.9 46.6107 168.611C52.8996 162.322 60.3657 157.333 68.5825 153.93C76.7994 150.526 85.6061 148.774 94.5 148.774C103.394 148.774 112.201 150.526 120.417 153.93C128.634 157.333 136.1 162.322 142.389 168.611C148.678 174.9 153.667 182.366 157.07 190.583C160.474 198.799 162.226 207.606 162.226 216.5H189Z" fill="#C63973"/>
</svg>
